<svg version="1.1" xmlns="http://www.w3.org/2000/svg" xmlns:xlink="http://www.w3.org/1999/xlink" x="0px" y="0px" style="enable-background:new 0 0 1031.81 728.5;" xml:space="preserve" viewBox="180.6 60.18 670.63 608.13">
<style type="text/css">
	.st0{display:none;}
	.st1{display:inline;}
	.st2{stroke:#B2C2B4;stroke-miterlimit:10;}
	.st3{stroke:#000000;stroke-width:16;stroke-linejoin:round;stroke-miterlimit:10;}
	.st4{stroke:#FFFFFF;stroke-width:4;stroke-linejoin:round;stroke-miterlimit:10;}
</style>
<g id="Layer_3">
</g>
<g id="Layer_2" class="st0">
	<g class="st1">
		<path class="st2" d="M571.42,254.94c-8.49,9.96,4.64,18.3,12.53,22.21c7.26,3.59,15.61,4.8,23.51,6.83    c16.1,4.14,28.01,12.69,37.24,24.85c5.29,6.97,7.89,14.95,11.63,22.95c0.45,0.97,1.87,1.24,2.75,0.53    c6.37-5.14,12.4-10.18,19.21-14.38c7.96-4.92,16-9.63,24.71-13.5c4.05-1.8,7.45-4.81,11.01-7.41c1.44-1.05,1.91-2.47,1.57-3.87    c-0.12-0.49-0.52-0.91-1.05-1.1c-8.71-3.15-17.73-5.21-25.01-10.72c-13.71-10.36-11.75-26.01,4.77-32.51    c15.56-6.13,31.64-7.34,47.42-0.19c7.44,3.37,16.76,13.74,16.33,22.51c-0.01,0.3-0.13,0.59-0.32,0.84    c-4.02,5.42-6.32,6.48-9.87,4.27c-0.58-0.36-0.85-1.01-0.7-1.62c3.32-13.87-7.48-25.4-24.12-25.78    c-7.88-0.18-15.31,0.3-22.38,3.97c-5.35,2.78-9.47,6.23-11.58,11.37c-2.55,6.19,9.67,14.8,17.81,17.05    c16.88,4.68,25.14,5.6,40.37,9.29c0.42,0.1,0.75,0.4,0.94,0.74c0.91,1.6,1.8,3.18,1.88,5.11c0.02,0.39-0.16,0.79-0.47,1.08    c-2.69,2.49-6.53,3.36-10.01,4.55c-22.54,7.69-44.12,16.77-62.06,31.62c-4.99,4.13-9.81,8.38-14.56,12.72    c-2.73,2.49-3.68,4.98-3.71,8.27c-0.1,11.51-1.92,22.75-5.32,33.95c-5.36,17.66-14.37,33.71-24.73,49.3    c-0.3,0.45-0.51,0.94-0.8,1.55c-0.14,0.3-0.19,0.65-0.12,0.97c3.74,16.62,13.24,30.27,29.64,39.25    c12.13,6.65,25.87,7.68,40.08,5.62c22.3-3.23,42.1-11.53,60.16-23.08c15.36-9.82,28.25-21.96,36.43-37.39    c6.09-11.49,9.1-23.51,4.05-36.04c-0.93-2.32-2.42-4.45-4.09-6.78c-0.72-1.01,0.1-2.33,1.45-2.32c9.65,0.05,18.59-1.96,27.16-5.6    c0.7-0.3,1.56-0.16,2.07,0.37c7.06,7.44,8.01,15.82,5.23,24.48c-5.65,17.58-17.04,32.34-29.85,46.41    c-12.01,13.19-25.83,24.74-41.18,34.55c-15.11,9.65-31.6,17.29-49.62,22.42c-11.23,3.2-22.56,5-34.08,5.75    c-12.38,0.8-24.5-1.18-36.33-4.86c-9.34-2.9-17.5-7.54-24.96-12.94c-5.75-4.16-9.37-10.17-13.33-16.18    c-0.51-0.78-1.67-0.97-2.5-0.45c-5.16,3.26-8.97,7.68-13.59,11.24c-7.89,6.09-15.62,12.37-24.51,17.24    c-6.9,3.78-6.1,9.99-6.55,15.37c-0.92,11.03-4.37,21.54-6.83,32.26c-2.8,12.19-8.12,23.7-12.24,35.54    c-1.71,4.91-3.12,10.23-3.61,16.4c-0.22,2.79-2.43,5.49-5.11,7.41c-19.68,14.13-36.95,24.63-56.74,39.43    c-0.23,0.17-0.5,0.29-0.79,0.34c-1.66,0.26-3.68,0.34-5.46-0.88c-0.19-0.13-0.36-0.3-0.47-0.49c-0.71-1.17-0.51-2.4-0.44-3.79    c0.02-0.38,0.2-0.74,0.51-1c9.07-7.88,18.71-15.51,25.45-25.43c7.12-10.48,13.87-21,17.72-33c2.55-7.94,5.62-15.84,8.84-23.63    c4.45-10.77,6.8-22.05,10.64-32.96c0.49-1.38,0.56-3.02-0.06-4.94c-0.28-0.86-1.37-1.29-2.31-0.94    c-16.49,6.11-33.32,11.32-50.43,14.61c-0.43,0.08-0.8,0.31-1.05,0.63c-14.88,19.43-28.45,39.31-49.7,53.1    c-2.44,1.58-5.9,0.9-7.41-1.42l-1.97-3.03c-1.23-1.89-0.79-4.3,1.08-5.71c14.89-11.17,27.21-24.6,38.97-38.55    c0.96-1.13-0.21-2.72-1.76-2.39c-0.29,0.06-0.58,0.12-0.86,0.13c-19.52,0.96-38.87-0.16-57.26-6.3    c-16.15-5.4-29.59-14.39-38.99-27.61c-0.37-0.53-1.02-1.81-2.26-1.61c-1.15,0.18,0.29,4.72,0.96,7.04    c2.93,10.15,5.12,20.44,6.11,30.89c0.36,3.79-0.03,7.65-1.67,11.14c-1.34,2.84-3.93,4.84-7.86,5.2c-0.3,0.03-0.62-0.02-0.91-0.12    c-5.04-1.9-8-5.64-8.95-10.39c-1.57-7.89-4.5-15.46-5.94-23.4c-2.62-14.36-5.65-28.65-7.72-43.1c-7-48.72-8.61-97.64-7.18-146.66    c0.29-9.89,0.5-19.77,0.61-30.06c0.01-0.81-0.7-1.51-1.62-1.57c-18.4-1.18-36.63,0-54.64-0.39c-0.78-0.02-1.45-0.52-1.6-1.21    c-0.24-1.07,0.04-2.09,0.49-3.44c0.22-0.64,0.88-1.08,1.63-1.08c7.51,0,46.45,0,54.61,0c0.86,0,1.58-0.58,1.68-1.33    c1.02-7.41,2.14-13.95,2.67-20.53c0.97-12.1,2.95-24.09,4.66-36.11c0.77-5.4,3.47-11.15,7-14.9c1.1-1.16,3.21-0.36,3.02,1.15    c-2.88,22.93-2.32,45.48-3.36,68.4c-0.04,0.86,0.73,1.58,1.7,1.58h53.49c0.66,0,1.27-0.35,1.56-0.88c1.19-2.21,0.7-4.14,0.68-5.98    c-0.16-18.93,0.19-37.84,2.53-56.67c0.46-3.72,1.31-7.41,2.06-11.1c0.11-0.56,0.26-1.11,0.51-1.61c0.74-1.48,3.26-1,3.28,0.62    c0.29,24.55-0.91,49.01,2.06,73.65c0.09,0.77,0.84,1.36,1.71,1.36h45.19c0.66,0,1.26-0.33,1.54-0.86    c8.68-15.88,15.71-32.98,33.37-43.71c0.61-0.37,1.45-0.35,2.04,0.05c17.7,12.04,29.2,28.18,38.81,45.35    c0.25,0.45,0.74,0.76,1.3,0.83c10.74,1.34,21.17,1.7,31.67,0.46c4.1-0.48,7.46,0.31,8.02,4.26c0.11,0.75-0.45,1.48-1.28,1.67    c-10.84,2.46-21.8,0.15-33.34,0.13c-1.17,0-1.96,1.04-1.58,2.01c20.81,52.94,27.43,107.48,28.9,163.69    c0.03,1.11,1.35,1.83,2.47,1.34c12.32-5.47,22.53-12.41,32.62-19.73c0.4-0.29,0.63-0.73,0.62-1.18    c-0.23-42.74,25.62-74.76,55.28-105.99c0.41-0.43,0.51-1.01,0.28-1.53c-1.97-4.48-3.59-9.48-6.51-13.79    c-6.71-9.91-13.52-19.78-24.96-26.35c-7.36-4.23-15.28-6.92-23.43-9.42c-10.18-3.13-20.64-5.55-29.53-11.54    c-13.56-9.12-12.18-22.37-0.25-30c16.01-10.24,37.9-11.24,56.03-2.26c8.96,4.43,13.13,13.78,12.11,24.86    c-0.04,0.38-0.24,0.75-0.54,1.03c-3.72,3.3-4.11,3.46-8.87,2.93c-0.6-0.07-1.13-0.41-1.38-0.9c-0.77-1.53-0.41-3.13,0.23-4.75    c2.74-6.89,0.38-13.21-6.6-17.37c-4.57-2.72-9.43-4.81-14.81-6.09c-10.61-2.53-21.2,1.96-26.5,5.48    C572.96,253.37,572.13,254.11,571.42,254.94z M588.18,470.14c-9.96,4.16-19.92,8.31-30.08,12.55c-0.66,0.27-1.08,0.88-1.02,1.52    c0.28,3.01-0.53,6.01,0.33,9.01c0.22,0.77,1.09,1.23,1.97,1.12c0.36-0.05,0.67-0.12,0.89-0.28c6.71-4.83,13.83-9.31,19.84-14.75    c2.94-2.66,7.68-4.32,9.05-8.73c0.16-0.5,0.64-0.83,1.19-1.01c0.31-0.1,0.56-0.33,0.62-0.93    C590.19,469.15,589.58,469.56,588.18,470.14z M424.5,347.32c-6.44,3.06-12.23,6.92-17.67,10.94c-0.42,0.31-0.65,0.78-0.62,1.27    c2.84,42.79,9.42,84.91,10.91,127.02c0.02,0.52,0.32,0.99,0.82,1.25c8.92,4.65,52.97,6.04,66.11,2.25    c0.45-0.13,0.8-0.43,0.99-0.81c5.08-10.18,9.34-20.65,13.33-31.26c5.84-15.51,10.84-31.19,13.85-47.3    c4.3-22.99,7.45-46.13,6.51-69.49c-0.27-6.67,0.02-13.57-2.37-20.01c-2.31-6.21-3.02-9.33-5.97-15.98    c-0.22-0.49-0.43-2.2-1.01-2.2c-15.34,0-39.92-0.74-50.72-0.74c-0.76,0-1.45,0.39-1.71,1.03c-0.44,1.1-0.83,1.94-0.92,2.79    c-2.83,26.3-1.77,52.53,3.74,78.45c2.17,10.23,3.62,21.17,12.83,29.23c2.05,1.79,1.01,3.96-0.57,5.82    c-2.5,2.93-3.83,6.21-4.45,9.87c-1.6,9.52-2.45,19.17-5.68,28.61c-0.19,0.54-0.71,0.96-1.34,1.06c-5.06,0.8-9.53,0.28-11.69-4.34    c-0.04-0.09-0.08-0.19-0.11-0.29c-13.06-49.81-15.46-99.73-3.13-150.25c0.23-0.94-0.57-1.84-1.66-1.84h-39.74    c-0.93,0-1.7,0.67-1.72,1.5c-0.33,16.21,1.15,31.95,3.15,48.39c0.14,1.18,1.69,1.77,2.76,1.05c7.81-5.28,15.29-9.7,24.39-12.96    c-0.8,4.39-5.36,4.1-7.87,6.62C424.81,347.13,424.67,347.24,424.5,347.32z M392.21,332.28c-0.46-9.49-0.92-18.98-1.43-29.36    c-0.04-0.88-0.9-1.55-1.88-1.48c-17.89,1.28-35.47,0.6-53.52,0.92c-0.93,0.02-1.68,0.69-1.69,1.52c-0.02,2.15-0.06,4,0.02,5.85    c0.68,16.28,1.4,32.56,1.16,48.85c-0.02,1.47,0.31,2.94,0.43,4.41c1.32,15.56,3,31.11,3.79,46.69c0.49,9.7,1.85,19.28,2.93,28.91    c1.4,12.53,3.58,24.92,4.99,37.5c1.61,14.35,7.56,26.12,18.78,36.36c11.48,10.47,25.64,16.25,41.18,19.35    c16.83,3.36,33.95,2.96,51.5,0.88c0.5-0.06,0.95-0.31,1.22-0.69c6.87-9.61,13.82-19.47,19.05-31.13c0.45-1-0.41-2.09-1.63-2.08    c-19.89,0.16-38.83-1.15-57.19-6.67c-1.01-0.3-2.07,0.27-2.25,1.2c-1.76,9.45,1.24,18.66-3.07,27.12    c-0.18,0.34-0.49,0.63-0.88,0.78c-4.38,1.74-8.7,1.51-13.32,0.77c-0.81-0.13-1.39-0.77-1.39-1.51c0.07-11.4-0.98-22.33-1.92-33.39    c-0.04-0.52-0.39-0.99-0.91-1.24c-6.34-2.98-12.83-5.24-18.67-8.7c-9.33-5.54-17.25-12.32-22.47-20.97    c-7.4-12.26-7.56-25.64-3.31-38.66c4.7-14.41,13.49-27,25.44-37.76c5.37-4.83,10.55-9.83,15.79-14.74    c0.32-0.3,0.49-0.71,0.47-1.13C392.76,353.54,392,343.39,392.21,332.28z M362.72,461.39c8.77,8.76,18.78,15.9,31.93,20.18    c1.13,0.37,2.32-0.42,2.29-1.49c-1.04-35.87-2.07-71.1-3.1-106.3c-0.09-4.39,1.18-7.6-5.13-1.54h0c-1.02,1.11-2.23,2.08-3.36,3.1    c-15.19,13.77-27.8,28.85-32.18,48.37c-3.05,13.59,0.08,25.75,9.4,37.51C362.61,461.28,362.66,461.33,362.72,461.39z     M536.79,414.17c-1.87-17.11-3.61-34.23-6.71-51.23c-0.33-1.82-3.36-1.64-3.4,0.2c-1.08,42.33-10.66,83.42-28.1,124.43    c-0.49,1.14,0.66,2.31,1.99,2.02c12.04-2.62,22.42-5.84,32.62-9.27c0.58-0.2,1-0.66,1.09-1.21    C537.83,457.48,538.83,436.32,536.79,414.17z M632.2,472.42c-4.59-5.76-8.61-11.83-12.17-18.62c-0.54-1.02-2.09-1.21-2.89-0.33    c-3.99,4.38-7.88,8.18-11.03,12.61c-0.34,0.47-0.34,1.08-0.03,1.56c2.85,4.49,5.01,9.19,8.76,13.12    c12.9,13.51,30.34,18.04,49.21,19.7c11.23,0.99,22.11-1.43,32.85-3.63c5.68-1.16,11.91-1.99,17.51-5.48    c-1.04-0.29-1.23-0.4-1.38-0.37c-1.78,0.42-3.55,0.84-5.32,1.29c-18.09,4.58-35.65,3.65-52.79-3.53    c-8.81-3.69-15.6-9.48-22.57-16.13C632.31,472.55,632.25,472.49,632.2,472.42z M504.56,284.91c-2.06-5.67-5.65-14.5-12.14-22.71    c-4.04-5.11-11.3-5.47-15.85-0.7c-7.7,8.06-15.24,23-16.65,31.79c-0.15,0.9,0.67,1.69,1.7,1.66c14.88-0.33,29.5,0.42,44.71,0.47    c1.18,0,2.02-1.04,1.65-2.03c-1.15-3.08-1.99-5.17-3.33-8.32C504.61,285.01,504.58,284.96,504.56,284.91z M487.35,527.06    c14.21-3.7,27.89-8.51,40.56-15.01c0.45-0.23,0.74-0.63,0.83-1.08c1.18-6.43,3.68-12.44,4.06-19.14c0.05-0.97-0.9-1.77-1.99-1.61    c-12.46,1.77-23.86,4.98-35.62,7.01c-0.53,0.09-0.98,0.4-1.22,0.83c-5.27,9.6-10.41,18.95-15.62,28.44    c-0.5,0.91,0.11,2.03,1.23,2.17C482.49,529.04,484.58,527.8,487.35,527.06z M643.47,369.68c-8.15,11.61-14.71,27.78-15.76,37.87    c-0.17,1.62,2.3,2.3,3.2,0.88c7.9-12.38,13.14-25.54,16.91-39.51c0.47-1.74-2.25-2.66-3.18-1.07    C644.29,368.45,643.93,369.06,643.47,369.68z M602.6,428.25c-1.04,3.32-1.32,6.66-1.08,10.4c0.08,1.27,1.82,1.87,2.87,1    c2.88-2.38,5.6-4.29,7.09-6.54c0.16-0.23,0.23-0.5,0.23-0.78l0-20.18c0-1.61-2.49-2.12-3.26-0.66    C605.59,416.93,604.62,422.51,602.6,428.25z"/>
		<path class="st2" d="M302.14,537.64c-7.83-13.21-14.13-26.86-20.42-40.5c-7.23-15.68-13.14-31.92-18.67-48.26    c-3.61-10.67-6.92-21.53-9.24-32.54c-3.68-17.47-6.81-35.04-9.28-52.79c-3.57-25.66-2.75-51.31-3.08-77.01    c-0.14-10.73,1.91-21.21,2.95-31.81c1.11-11.33,3.05-22.5,5.29-33.64c0.13-0.65-0.24-1.32-0.88-1.49    c-1.29-0.35-2.58-0.25-4.04-0.08c-0.49,0.06-0.91,0.38-1.09,0.83c-2.5,6.58-3.23,13.7-4.27,20.68c-0.52,3.45-1.23,6.85-1.76,10.28    c-1.97,12.85-3.64,25.76-5.44,38.62c-2.75,19.64-2.62,39.29-2.09,58.92c0.66,24.24,1.91,48.47,5.42,72.57    c2.28,15.65,5.29,31.05,9.26,46.35c3.36,12.96,6.98,25.78,11.47,38.41c5.41,15.23,11.8,30.04,19.2,44.35    c7.85,15.18,15.26,30.62,24.41,45.09c6.69,10.57,14.23,20.56,21.89,30.44c1.77,2.28,2.1,5.01,3.2,7.32    c0.15,0.31,0.19,0.66,0.08,0.98c-1.91,5.63-7.33,7.52-11.2,10.9c-1.09,0.96-2.43,1.8-3.67,2.68c-2.59,1.84-5.87,1.16-7.25-1.37    c-9.36-17.18-19.26-34.07-27.64-51.76c-5.71-12.06-10.89-24.36-15.88-36.76c-4.06-10.09-7.87-20.29-11.16-30.61    c-3.45-10.85-7.31-21.62-9.5-32.87c-0.9-4.64-2.33-9.22-3.66-13.74c-3.65-12.37-6.2-25.03-8.23-37.63    c-2.69-16.67-4.86-33.47-6.7-50.31c-3.05-27.95-2.38-55.87-2.16-83.82c0.14-17.52,2.46-34.89,5.23-52.22    c1.95-12.18,4.56-24.11,7.14-36.63c0.12-0.59-0.22-1.2-0.8-1.38c-4.05-1.23-8.15-1.61-12.25-2c-2.76-0.26-3.93-1.24-3.71-3.14    c0.09-0.77,0.85-1.26,1.61-1.08c5.15,1.22,10.42,0.48,16.05,0.74c0.58,0.03,1.11-0.33,1.3-0.88    c13.88-41.05,36.81-76.06,68.61-105.36c0.93-0.86,0.22-2.42-1.04-2.25c-28.77,3.86-56.14,11.57-81.74,25.64    c-0.58,0.32-0.85,1.04-0.58,1.65c0.65,1.5,1.58,2.69,1.7,4.14c0.03,0.31-0.09,0.61-0.29,0.85c-2.97,3.65-7.14,4.9-15.16,4.44    c-0.32-0.02-0.63-0.16-0.85-0.39l-2.94-3.1c-0.25-0.26-0.39-0.62-0.36-0.98c0.47-7.04,6.17-9.89,11.23-13.13    c9.9-6.33,20.78-10.74,31.75-14.66c12.03-4.3,24.35-7.7,36.94-10.28c10-2.05,20.05-3.89,30.13-5.05    c8.88-1.02,15.11-5.92,21.55-10.97c1.79-1.4,3.77-2.43,5.78-3.19c3.26-1.24,4.16,1.28,5.31,3.42c0.23,0.43,0.19,0.95-0.08,1.36    c-1.64,2.47-4.38,3.6-6.51,5.4c-0.95,0.8-0.38,2.35,0.86,2.35l0,0c17.24,0.13,34.36,0.56,51.44,4.03    c13.5,2.74,26.56,6.41,38.66,12.74c11.17,5.84,22.64,11.63,29.84,22.9c6.09,9.52,8.54,19.65,5.68,30.71    c-3.31,12.78-11.73,21.88-21.94,29.62c-11.46,8.69-24.89,12.73-38.38,16.72c-11.42,3.38-23.1,5.42-34.88,6.74    c-17.96,2.01-35.94,4.07-54.04,4.13c-16.57,0.05-33.14-0.35-49.71-0.54c-1.63-0.02-3.25-0.01-4.82,0c-0.56,0-1.05,0.37-1.21,0.91    c-3.22,10.73-4.38,21.56-5.54,32.32c-2.64,24.47-4.1,49.06-2.41,73.64c0.96,13.97,1.56,27.97,3.69,41.9    c1.95,12.7,4.23,25.28,6.77,37.87c2.21,10.96,5.18,21.67,8.22,32.39c3.57,12.58,7.9,24.86,12.65,37.06    c6.21,15.94,13.22,31.45,20.87,46.74c7.22,14.44,15.35,28.27,24.51,41.52c1.74,2.51,4.07,4.61,6.21,6.84    c1.97,2.06,2.53,4.4,2.18,6.96c-0.06,0.41-0.32,0.78-0.7,0.97c-2.4,1.18-4.71,1.29-7.76-0.27c-0.22-0.11-0.4-0.29-0.52-0.49    C318.17,565.01,310.2,551.47,302.14,537.64z M306.85,112.81c-3.74,3.28-7.82,6.25-11.16,9.9c-9.86,10.75-15.04,24.28-20.85,37.31    c-4.18,9.38-7.06,19.31-10.1,29.15c-2.24,7.26-3.85,14.63-5.47,22.41c-0.17,0.81,0.45,1.58,1.28,1.58    c14.43,0.07,28.58,0.49,42.72-1.11c13.48-1.53,27-2.6,40.46-4.46c16.21-2.25,32.12-5.6,47.75-10.18    c9.16-2.69,18.06-6.28,26.61-10.81c10.8-5.72,20.58-12.44,27.06-23c3.88-6.32,5.97-12.97,2.99-20.67    c-3.82-9.89-10.67-16.98-19.39-22.2c-13.46-8.06-28.13-12.83-43.66-15.51c-17.76-3.07-35.56-4.24-53.52-3.9    c-3.21,0.06-6.53,0.02-9.46,1.49C316.83,105.44,311.78,108.49,306.85,112.81z M259.34,185.87c0.46-1.77,0.98-3.52,1.53-5.26    c0.47-1.49-1.64-2.37-2.38-1c-5.47,10.07-10.13,20.48-12.06,32.09c-0.12,0.73,0.41,1.41,1.14,1.51c0.94,0.13,1.92,0.05,2.98-0.18    c0.48-0.1,0.88-0.45,1.01-0.93c2.41-8.48,4.35-17.2,7.74-26.13C259.32,185.94,259.33,185.9,259.34,185.87z"/>
	</g>
</g>
<g id="Layer_1">
	<g>
		<path class="st3" d="M571.42,254.94c-8.49,9.96,4.64,18.3,12.53,22.21c7.26,3.59,15.61,4.8,23.51,6.83    c16.1,4.14,28.01,12.69,37.24,24.85c5.29,6.97,7.89,14.95,11.63,22.95c0.45,0.97,1.87,1.24,2.75,0.53    c6.37-5.14,12.4-10.18,19.21-14.38c7.96-4.92,16-9.63,24.71-13.5c4.05-1.8,7.45-4.81,11.01-7.41c1.44-1.05,1.91-2.47,1.57-3.87    c-0.12-0.49-0.52-0.91-1.05-1.1c-8.71-3.15-17.73-5.21-25.01-10.72c-13.71-10.36-11.75-26.01,4.77-32.51    c15.56-6.13,31.64-7.34,47.42-0.19c7.44,3.37,16.76,13.74,16.33,22.51c-0.01,0.3-0.13,0.59-0.32,0.84    c-4.02,5.42-6.32,6.48-9.87,4.27c-0.58-0.36-0.85-1.01-0.7-1.62c3.32-13.87-7.48-25.4-24.12-25.78    c-7.88-0.18-15.31,0.3-22.38,3.97c-5.35,2.78-9.47,6.23-11.58,11.37c-2.55,6.19,9.67,14.8,17.81,17.05    c16.88,4.68,25.14,5.6,40.37,9.29c0.42,0.1,0.75,0.4,0.94,0.74c0.91,1.6,1.8,3.18,1.88,5.11c0.02,0.39-0.16,0.79-0.47,1.08    c-2.69,2.49-6.53,3.36-10.01,4.55c-22.54,7.69-44.12,16.77-62.06,31.62c-4.99,4.13-9.81,8.38-14.56,12.72    c-2.73,2.49-3.68,4.98-3.71,8.27c-0.1,11.51-1.92,22.75-5.32,33.95c-5.36,17.66-14.37,33.71-24.73,49.3    c-0.3,0.45-0.51,0.94-0.8,1.55c-0.14,0.3-0.19,0.65-0.12,0.97c3.74,16.62,13.24,30.27,29.64,39.25    c12.13,6.65,25.87,7.68,40.08,5.62c22.3-3.23,42.1-11.53,60.16-23.08c15.36-9.82,28.25-21.96,36.43-37.39    c6.09-11.49,9.1-23.51,4.05-36.04c-0.93-2.32-2.42-4.45-4.09-6.78c-0.72-1.01,0.1-2.33,1.45-2.32c9.65,0.05,18.59-1.96,27.16-5.6    c0.7-0.3,1.56-0.16,2.07,0.37c7.06,7.44,8.01,15.82,5.23,24.48c-5.65,17.58-17.04,32.34-29.85,46.41    c-12.01,13.19-25.83,24.74-41.18,34.55c-15.11,9.65-31.6,17.29-49.62,22.42c-11.23,3.2-22.56,5-34.08,5.75    c-12.38,0.8-24.5-1.18-36.33-4.86c-9.34-2.9-17.5-7.54-24.96-12.94c-5.75-4.16-9.37-10.17-13.33-16.18    c-0.51-0.78-1.67-0.97-2.5-0.45c-5.16,3.26-8.97,7.68-13.59,11.24c-7.89,6.09-15.62,12.37-24.51,17.24    c-6.9,3.78-6.1,9.99-6.55,15.37c-0.92,11.03-4.37,21.54-6.83,32.26c-2.8,12.19-8.12,23.7-12.24,35.54    c-1.71,4.91-3.12,10.23-3.61,16.4c-0.22,2.79-2.43,5.49-5.11,7.41c-19.68,14.13-36.95,24.63-56.74,39.43    c-0.23,0.17-0.5,0.29-0.79,0.34c-1.66,0.26-3.68,0.34-5.46-0.88c-0.19-0.13-0.36-0.3-0.47-0.49c-0.71-1.17-0.51-2.4-0.44-3.79    c0.02-0.38,0.2-0.74,0.51-1c9.07-7.88,18.71-15.51,25.45-25.43c7.12-10.48,13.87-21,17.72-33c2.55-7.94,5.62-15.84,8.84-23.63    c4.45-10.77,6.8-22.05,10.64-32.96c0.49-1.38,0.56-3.02-0.06-4.94c-0.28-0.86-1.37-1.29-2.31-0.94    c-16.49,6.11-33.32,11.32-50.43,14.61c-0.43,0.08-0.8,0.31-1.05,0.63c-14.88,19.43-28.45,39.31-49.7,53.1    c-2.44,1.58-5.9,0.9-7.41-1.42l-1.97-3.03c-1.23-1.89-0.79-4.3,1.08-5.71c14.89-11.17,27.21-24.6,38.97-38.55    c0.96-1.13-0.21-2.72-1.76-2.39c-0.29,0.06-0.58,0.12-0.86,0.13c-19.52,0.96-38.87-0.16-57.26-6.3    c-16.15-5.4-29.59-14.39-38.99-27.61c-0.37-0.53-1.02-1.81-2.26-1.61c-1.15,0.18,0.29,4.72,0.96,7.04    c2.93,10.15,5.12,20.44,6.11,30.89c0.36,3.79-0.03,7.65-1.67,11.14c-1.34,2.84-3.93,4.84-7.86,5.2c-0.3,0.03-0.62-0.02-0.91-0.12    c-5.04-1.9-8-5.64-8.95-10.39c-1.57-7.89-4.5-15.46-5.94-23.4c-2.62-14.36-5.65-28.65-7.72-43.1c-7-48.72-8.61-97.64-7.18-146.66    c0.29-9.89,0.5-19.77,0.61-30.06c0.01-0.81-0.7-1.51-1.62-1.57c-18.4-1.18-36.63,0-54.64-0.39c-0.78-0.02-1.45-0.52-1.6-1.21    c-0.24-1.07,0.04-2.09,0.49-3.44c0.22-0.64,0.88-1.08,1.63-1.08c7.51,0,46.45,0,54.61,0c0.86,0,1.58-0.58,1.68-1.33    c1.02-7.41,2.14-13.95,2.67-20.53c0.97-12.1,2.95-24.09,4.66-36.11c0.77-5.4,3.47-11.15,7-14.9c1.1-1.16,3.21-0.36,3.02,1.15    c-2.88,22.93-2.32,45.48-3.36,68.4c-0.04,0.86,0.73,1.58,1.7,1.58h53.49c0.66,0,1.27-0.35,1.56-0.88c1.19-2.21,0.7-4.14,0.68-5.98    c-0.16-18.93,0.19-37.84,2.53-56.67c0.46-3.72,1.31-7.41,2.06-11.1c0.11-0.56,0.26-1.11,0.51-1.61c0.74-1.48,3.26-1,3.28,0.62    c0.29,24.55-0.91,49.01,2.06,73.65c0.09,0.77,0.84,1.36,1.71,1.36h45.19c0.66,0,1.26-0.33,1.54-0.86    c8.68-15.88,15.71-32.98,33.37-43.71c0.61-0.37,1.45-0.35,2.04,0.05c17.7,12.04,29.2,28.18,38.81,45.35    c0.25,0.45,0.74,0.76,1.3,0.83c10.74,1.34,21.17,1.7,31.67,0.46c4.1-0.48,7.46,0.31,8.02,4.26c0.11,0.75-0.45,1.48-1.28,1.67    c-10.84,2.46-21.8,0.15-33.34,0.13c-1.17,0-1.96,1.04-1.58,2.01c20.81,52.94,27.43,107.48,28.9,163.69    c0.03,1.11,1.35,1.83,2.47,1.34c12.32-5.47,22.53-12.41,32.62-19.73c0.4-0.29,0.63-0.73,0.62-1.18    c-0.23-42.74,25.62-74.76,55.28-105.99c0.41-0.43,0.51-1.01,0.28-1.53c-1.97-4.48-3.59-9.48-6.51-13.79    c-6.71-9.91-13.52-19.78-24.96-26.35c-7.36-4.23-15.28-6.92-23.43-9.42c-10.18-3.13-20.64-5.55-29.53-11.54    c-13.56-9.12-12.18-22.37-0.25-30c16.01-10.24,37.9-11.24,56.03-2.26c8.96,4.43,13.13,13.78,12.11,24.86    c-0.04,0.38-0.24,0.75-0.54,1.03c-3.72,3.3-4.11,3.46-8.87,2.93c-0.6-0.07-1.13-0.41-1.38-0.9c-0.77-1.53-0.41-3.13,0.23-4.75    c2.74-6.89,0.38-13.21-6.6-17.37c-4.57-2.72-9.43-4.81-14.81-6.09c-10.61-2.53-21.2,1.96-26.5,5.48    C572.96,253.37,572.13,254.11,571.42,254.94z M588.18,470.14c-9.96,4.16-19.92,8.31-30.08,12.55c-0.66,0.27-1.08,0.88-1.02,1.52    c0.28,3.01-0.53,6.01,0.33,9.01c0.22,0.77,1.09,1.23,1.97,1.12c0.36-0.05,0.67-0.12,0.89-0.28c6.71-4.83,13.83-9.31,19.84-14.75    c2.94-2.66,7.68-4.32,9.05-8.73c0.16-0.5,0.64-0.83,1.19-1.01c0.31-0.1,0.56-0.33,0.62-0.93    C590.19,469.15,589.58,469.56,588.18,470.14z M424.5,347.32c-6.44,3.06-12.23,6.92-17.67,10.94c-0.42,0.31-0.65,0.78-0.62,1.27    c2.84,42.79,9.42,84.91,10.91,127.02c0.02,0.52,0.32,0.99,0.82,1.25c8.92,4.65,52.97,6.04,66.11,2.25    c0.45-0.13,0.8-0.43,0.99-0.81c5.08-10.18,9.34-20.65,13.33-31.26c5.84-15.51,10.84-31.19,13.85-47.3    c4.3-22.99,7.45-46.13,6.51-69.49c-0.27-6.67,0.02-13.57-2.37-20.01c-2.31-6.21-3.02-9.33-5.97-15.98    c-0.22-0.49-0.43-2.2-1.01-2.2c-15.34,0-39.92-0.74-50.72-0.74c-0.76,0-1.45,0.39-1.71,1.03c-0.44,1.1-0.83,1.94-0.92,2.79    c-2.83,26.3-1.77,52.53,3.74,78.45c2.17,10.23,3.62,21.17,12.83,29.23c2.05,1.79,1.01,3.96-0.57,5.82    c-2.5,2.93-3.83,6.21-4.45,9.87c-1.6,9.52-2.45,19.17-5.68,28.61c-0.19,0.54-0.71,0.96-1.34,1.06c-5.06,0.8-9.53,0.28-11.69-4.34    c-0.04-0.09-0.08-0.19-0.11-0.29c-13.06-49.81-15.46-99.73-3.13-150.25c0.23-0.94-0.57-1.84-1.66-1.84h-39.74    c-0.93,0-1.7,0.67-1.72,1.5c-0.33,16.21,1.15,31.95,3.15,48.39c0.14,1.18,1.69,1.77,2.76,1.05c7.81-5.28,15.29-9.7,24.39-12.96    c-0.8,4.39-5.36,4.1-7.87,6.62C424.81,347.13,424.67,347.24,424.5,347.32z M392.21,332.28c-0.46-9.49-0.92-18.98-1.43-29.36    c-0.04-0.88-0.9-1.55-1.88-1.48c-17.89,1.28-35.47,0.6-53.52,0.92c-0.93,0.02-1.68,0.69-1.69,1.52c-0.02,2.15-0.06,4,0.02,5.85    c0.68,16.28,1.4,32.56,1.16,48.85c-0.02,1.47,0.31,2.94,0.43,4.41c1.32,15.56,3,31.11,3.79,46.69c0.49,9.7,1.85,19.28,2.93,28.91    c1.4,12.53,3.58,24.92,4.99,37.5c1.61,14.35,7.56,26.12,18.78,36.36c11.48,10.47,25.64,16.25,41.18,19.35    c16.83,3.36,33.95,2.96,51.5,0.88c0.5-0.06,0.95-0.31,1.22-0.69c6.87-9.61,13.82-19.47,19.05-31.13c0.45-1-0.41-2.09-1.63-2.08    c-19.89,0.16-38.83-1.15-57.19-6.67c-1.01-0.3-2.07,0.27-2.25,1.2c-1.76,9.45,1.24,18.66-3.07,27.12    c-0.18,0.34-0.49,0.63-0.88,0.78c-4.38,1.74-8.7,1.51-13.32,0.77c-0.81-0.13-1.39-0.77-1.39-1.51c0.07-11.4-0.98-22.33-1.92-33.39    c-0.04-0.52-0.39-0.99-0.91-1.24c-6.34-2.98-12.83-5.24-18.67-8.7c-9.33-5.54-17.25-12.32-22.47-20.97    c-7.4-12.26-7.56-25.64-3.31-38.66c4.7-14.41,13.49-27,25.44-37.76c5.37-4.83,10.55-9.83,15.79-14.74    c0.32-0.3,0.49-0.71,0.47-1.13C392.76,353.54,392,343.39,392.21,332.28z M362.72,461.39c8.77,8.76,18.78,15.9,31.93,20.18    c1.13,0.37,2.32-0.42,2.29-1.49c-1.04-35.87-2.07-71.1-3.1-106.3c-0.09-4.39,1.18-7.6-5.13-1.54h0c-1.02,1.11-2.23,2.08-3.36,3.1    c-15.19,13.77-27.8,28.85-32.18,48.37c-3.05,13.59,0.08,25.75,9.4,37.51C362.61,461.28,362.66,461.33,362.72,461.39z     M536.79,414.17c-1.87-17.11-3.61-34.23-6.71-51.23c-0.33-1.82-3.36-1.64-3.4,0.2c-1.08,42.33-10.66,83.42-28.1,124.43    c-0.49,1.14,0.66,2.31,1.99,2.02c12.04-2.62,22.42-5.84,32.62-9.27c0.58-0.2,1-0.66,1.09-1.21    C537.83,457.48,538.83,436.32,536.79,414.17z M632.2,472.42c-4.59-5.76-8.61-11.83-12.17-18.62c-0.54-1.02-2.09-1.21-2.89-0.33    c-3.99,4.38-7.88,8.18-11.03,12.61c-0.34,0.47-0.34,1.08-0.03,1.56c2.85,4.49,5.01,9.19,8.76,13.12    c12.9,13.51,30.34,18.04,49.21,19.7c11.23,0.99,22.11-1.43,32.85-3.63c5.68-1.16,11.91-1.99,17.51-5.48    c-1.04-0.29-1.23-0.4-1.38-0.37c-1.78,0.42-3.55,0.84-5.32,1.29c-18.09,4.58-35.65,3.65-52.79-3.53    c-8.81-3.69-15.6-9.48-22.57-16.13C632.31,472.55,632.25,472.49,632.2,472.42z M504.56,284.91c-2.06-5.67-5.65-14.5-12.14-22.71    c-4.04-5.11-11.3-5.47-15.85-0.7c-7.7,8.06-15.24,23-16.65,31.79c-0.15,0.9,0.67,1.69,1.7,1.66c14.88-0.33,29.5,0.42,44.71,0.47    c1.18,0,2.02-1.04,1.65-2.03c-1.15-3.08-1.99-5.17-3.33-8.32C504.61,285.01,504.58,284.96,504.56,284.91z M487.35,527.06    c14.21-3.7,27.89-8.51,40.56-15.01c0.45-0.23,0.74-0.63,0.83-1.08c1.18-6.43,3.68-12.44,4.06-19.14c0.05-0.97-0.9-1.77-1.99-1.61    c-12.46,1.77-23.86,4.98-35.62,7.01c-0.53,0.09-0.98,0.4-1.22,0.83c-5.27,9.6-10.41,18.95-15.62,28.44    c-0.5,0.91,0.11,2.03,1.23,2.17C482.49,529.04,484.58,527.8,487.35,527.06z M643.47,369.68c-8.15,11.61-14.71,27.78-15.76,37.87    c-0.17,1.62,2.3,2.3,3.2,0.88c7.9-12.38,13.14-25.54,16.91-39.51c0.47-1.74-2.25-2.66-3.18-1.07    C644.29,368.45,643.93,369.06,643.47,369.68z M602.6,428.25c-1.04,3.32-1.32,6.66-1.08,10.4c0.08,1.27,1.82,1.87,2.87,1    c2.88-2.38,5.6-4.29,7.09-6.54c0.16-0.23,0.23-0.5,0.23-0.78l0-20.18c0-1.61-2.49-2.12-3.26-0.66    C605.59,416.93,604.62,422.51,602.6,428.25z"/>
		<path class="st3" d="M302.14,537.64c-7.83-13.21-14.13-26.86-20.42-40.5c-7.23-15.68-13.14-31.92-18.67-48.26    c-3.61-10.67-6.92-21.53-9.24-32.54c-3.68-17.47-6.81-35.04-9.28-52.79c-3.57-25.66-2.75-51.31-3.08-77.01    c-0.14-10.73,1.91-21.21,2.95-31.81c1.11-11.33,3.05-22.5,5.29-33.64c0.13-0.65-0.24-1.32-0.88-1.49    c-1.29-0.35-2.58-0.25-4.04-0.08c-0.49,0.06-0.91,0.38-1.09,0.83c-2.5,6.58-3.23,13.7-4.27,20.68c-0.52,3.45-1.23,6.85-1.76,10.28    c-1.97,12.85-3.64,25.76-5.44,38.62c-2.75,19.64-2.62,39.29-2.09,58.92c0.66,24.24,1.91,48.47,5.42,72.57    c2.28,15.65,5.29,31.05,9.26,46.35c3.36,12.96,6.98,25.78,11.47,38.41c5.41,15.23,11.8,30.04,19.2,44.35    c7.85,15.18,15.26,30.62,24.41,45.09c6.69,10.57,14.23,20.56,21.89,30.44c1.77,2.28,2.1,5.01,3.2,7.32    c0.15,0.31,0.19,0.66,0.08,0.98c-1.91,5.63-7.33,7.52-11.2,10.9c-1.09,0.96-2.43,1.8-3.67,2.68c-2.59,1.84-5.87,1.16-7.25-1.37    c-9.36-17.18-19.26-34.07-27.64-51.76c-5.71-12.06-10.89-24.36-15.88-36.76c-4.06-10.09-7.87-20.29-11.16-30.61    c-3.45-10.85-7.31-21.62-9.5-32.87c-0.9-4.64-2.33-9.22-3.66-13.74c-3.65-12.37-6.2-25.03-8.23-37.63    c-2.69-16.67-4.86-33.47-6.7-50.31c-3.05-27.95-2.38-55.87-2.16-83.82c0.14-17.52,2.46-34.89,5.23-52.22    c1.95-12.18,4.56-24.11,7.14-36.63c0.12-0.59-0.22-1.2-0.8-1.38c-4.05-1.23-8.15-1.61-12.25-2c-2.76-0.26-3.93-1.24-3.71-3.14    c0.09-0.77,0.85-1.26,1.61-1.08c5.15,1.22,10.42,0.48,16.05,0.74c0.58,0.03,1.11-0.33,1.3-0.88    c13.88-41.05,36.81-76.06,68.61-105.36c0.93-0.86,0.22-2.42-1.04-2.25c-28.77,3.86-56.14,11.57-81.74,25.64    c-0.58,0.32-0.85,1.04-0.58,1.65c0.65,1.5,1.58,2.69,1.7,4.14c0.03,0.31-0.09,0.61-0.29,0.85c-2.97,3.65-7.14,4.9-15.16,4.44    c-0.32-0.02-0.63-0.16-0.85-0.39l-2.94-3.1c-0.25-0.26-0.39-0.62-0.36-0.98c0.47-7.04,6.17-9.89,11.23-13.13    c9.9-6.33,20.78-10.74,31.75-14.66c12.03-4.3,24.35-7.7,36.94-10.28c10-2.05,20.05-3.89,30.13-5.05    c8.88-1.02,15.11-5.92,21.55-10.97c1.79-1.4,3.77-2.43,5.78-3.19c3.26-1.24,4.16,1.28,5.31,3.42c0.23,0.43,0.19,0.95-0.08,1.36    c-1.64,2.47-4.38,3.6-6.51,5.4c-0.95,0.8-0.38,2.35,0.86,2.35l0,0c17.24,0.13,34.36,0.56,51.44,4.03    c13.5,2.74,26.56,6.41,38.66,12.74c11.17,5.84,22.64,11.63,29.84,22.9c6.09,9.52,8.54,19.65,5.68,30.71    c-3.31,12.78-11.73,21.88-21.94,29.62c-11.46,8.69-24.89,12.73-38.38,16.72c-11.42,3.38-23.1,5.42-34.88,6.74    c-17.96,2.01-35.94,4.07-54.04,4.13c-16.57,0.05-33.14-0.35-49.71-0.54c-1.63-0.02-3.25-0.01-4.82,0c-0.56,0-1.05,0.37-1.21,0.91    c-3.22,10.73-4.38,21.56-5.54,32.32c-2.64,24.47-4.1,49.06-2.41,73.64c0.96,13.97,1.56,27.97,3.69,41.9    c1.95,12.7,4.23,25.28,6.77,37.87c2.21,10.96,5.18,21.67,8.22,32.39c3.57,12.58,7.9,24.86,12.65,37.06    c6.21,15.94,13.22,31.45,20.87,46.74c7.22,14.44,15.35,28.27,24.51,41.52c1.74,2.51,4.07,4.61,6.21,6.84    c1.97,2.06,2.53,4.4,2.18,6.96c-0.06,0.41-0.32,0.78-0.7,0.97c-2.4,1.18-4.71,1.29-7.76-0.27c-0.22-0.11-0.4-0.29-0.52-0.49    C318.17,565.01,310.2,551.47,302.14,537.64z M306.85,112.81c-3.74,3.28-7.82,6.25-11.16,9.9c-9.86,10.75-15.04,24.28-20.85,37.31    c-4.18,9.38-7.06,19.31-10.1,29.15c-2.24,7.26-3.85,14.63-5.47,22.41c-0.17,0.81,0.45,1.58,1.28,1.58    c14.43,0.07,28.58,0.49,42.72-1.11c13.48-1.53,27-2.6,40.46-4.46c16.21-2.25,32.12-5.6,47.75-10.18    c9.16-2.69,18.06-6.28,26.61-10.81c10.8-5.72,20.58-12.44,27.06-23c3.88-6.32,5.97-12.97,2.99-20.67    c-3.82-9.89-10.67-16.98-19.39-22.2c-13.46-8.06-28.13-12.83-43.66-15.51c-17.76-3.07-35.56-4.24-53.52-3.9    c-3.21,0.06-6.53,0.02-9.46,1.49C316.83,105.44,311.78,108.49,306.85,112.81z M259.34,185.87c0.46-1.77,0.98-3.52,1.53-5.26    c0.47-1.49-1.64-2.37-2.38-1c-5.47,10.07-10.13,20.48-12.06,32.09c-0.12,0.73,0.41,1.41,1.14,1.51c0.94,0.13,1.92,0.05,2.98-0.18    c0.48-0.1,0.88-0.45,1.01-0.93c2.41-8.48,4.35-17.2,7.74-26.13C259.32,185.94,259.33,185.9,259.34,185.87z"/>
	</g>
	<g>
		<path class="st4" d="M571.42,254.94c-8.49,9.96,4.64,18.3,12.53,22.21c7.26,3.59,15.61,4.8,23.51,6.83    c16.1,4.14,28.01,12.69,37.24,24.85c5.29,6.97,7.89,14.95,11.63,22.95c0.45,0.97,1.87,1.24,2.75,0.53    c6.37-5.14,12.4-10.18,19.21-14.38c7.96-4.92,16-9.63,24.71-13.5c4.05-1.8,7.45-4.81,11.01-7.41c1.44-1.05,1.91-2.47,1.57-3.87    c-0.12-0.49-0.52-0.91-1.05-1.1c-8.71-3.15-17.73-5.21-25.01-10.72c-13.71-10.36-11.75-26.01,4.77-32.51    c15.56-6.13,31.64-7.34,47.42-0.19c7.44,3.37,16.76,13.74,16.33,22.51c-0.01,0.3-0.13,0.59-0.32,0.84    c-4.02,5.42-6.32,6.48-9.87,4.27c-0.58-0.36-0.85-1.01-0.7-1.62c3.32-13.87-7.48-25.4-24.12-25.78    c-7.88-0.18-15.31,0.3-22.38,3.97c-5.35,2.78-9.47,6.23-11.58,11.37c-2.55,6.19,9.67,14.8,17.81,17.05    c16.88,4.68,25.14,5.6,40.37,9.29c0.42,0.1,0.75,0.4,0.94,0.74c0.91,1.6,1.8,3.18,1.88,5.11c0.02,0.39-0.16,0.79-0.47,1.08    c-2.69,2.49-6.53,3.36-10.01,4.55c-22.54,7.69-44.12,16.77-62.06,31.62c-4.99,4.13-9.81,8.38-14.56,12.72    c-2.73,2.49-3.68,4.98-3.71,8.27c-0.1,11.51-1.92,22.75-5.32,33.95c-5.36,17.66-14.37,33.71-24.73,49.3    c-0.3,0.45-0.51,0.94-0.8,1.55c-0.14,0.3-0.19,0.65-0.12,0.97c3.74,16.62,13.24,30.27,29.64,39.25    c12.13,6.65,25.87,7.68,40.08,5.62c22.3-3.23,42.1-11.53,60.16-23.08c15.36-9.82,28.25-21.96,36.43-37.39    c6.09-11.49,9.1-23.51,4.05-36.04c-0.93-2.32-2.42-4.45-4.09-6.78c-0.72-1.01,0.1-2.33,1.45-2.32c9.65,0.05,18.59-1.96,27.16-5.6    c0.7-0.3,1.56-0.16,2.07,0.37c7.06,7.44,8.01,15.82,5.23,24.48c-5.65,17.58-17.04,32.34-29.85,46.41    c-12.01,13.19-25.83,24.74-41.18,34.55c-15.11,9.65-31.6,17.29-49.62,22.42c-11.23,3.2-22.56,5-34.08,5.75    c-12.38,0.8-24.5-1.18-36.33-4.86c-9.34-2.9-17.5-7.54-24.96-12.94c-5.75-4.16-9.37-10.17-13.33-16.18    c-0.51-0.78-1.67-0.97-2.5-0.45c-5.16,3.26-8.97,7.68-13.59,11.24c-7.89,6.09-15.62,12.37-24.51,17.24    c-6.9,3.78-6.1,9.99-6.55,15.37c-0.92,11.03-4.37,21.54-6.83,32.26c-2.8,12.19-8.12,23.7-12.24,35.54    c-1.71,4.91-3.12,10.23-3.61,16.4c-0.22,2.79-2.43,5.49-5.11,7.41c-19.68,14.13-36.95,24.63-56.74,39.43    c-0.23,0.17-0.5,0.29-0.79,0.34c-1.66,0.26-3.68,0.34-5.46-0.88c-0.19-0.13-0.36-0.3-0.47-0.49c-0.71-1.17-0.51-2.4-0.44-3.79    c0.02-0.38,0.2-0.74,0.51-1c9.07-7.88,18.71-15.51,25.45-25.43c7.12-10.48,13.87-21,17.72-33c2.55-7.94,5.62-15.84,8.84-23.63    c4.45-10.77,6.8-22.05,10.64-32.96c0.49-1.38,0.56-3.02-0.06-4.94c-0.28-0.86-1.37-1.29-2.31-0.94    c-16.49,6.11-33.32,11.32-50.43,14.61c-0.43,0.08-0.8,0.31-1.05,0.63c-14.88,19.43-28.45,39.31-49.7,53.1    c-2.44,1.58-5.9,0.9-7.41-1.42l-1.97-3.03c-1.23-1.89-0.79-4.3,1.08-5.71c14.89-11.17,27.21-24.6,38.97-38.55    c0.96-1.13-0.21-2.72-1.76-2.39c-0.29,0.06-0.58,0.12-0.86,0.13c-19.52,0.96-38.87-0.16-57.26-6.3    c-16.15-5.4-29.59-14.39-38.99-27.61c-0.37-0.53-1.02-1.81-2.26-1.61c-1.15,0.18,0.29,4.72,0.96,7.04    c2.93,10.15,5.12,20.44,6.11,30.89c0.36,3.79-0.03,7.65-1.67,11.14c-1.34,2.84-3.93,4.84-7.86,5.2c-0.3,0.03-0.62-0.02-0.91-0.12    c-5.04-1.9-8-5.64-8.95-10.39c-1.57-7.89-4.5-15.46-5.94-23.4c-2.62-14.36-5.65-28.65-7.72-43.1c-7-48.72-8.61-97.64-7.18-146.66    c0.29-9.89,0.5-19.77,0.61-30.06c0.01-0.81-0.7-1.51-1.62-1.57c-18.4-1.18-36.63,0-54.64-0.39c-0.78-0.02-1.45-0.52-1.6-1.21    c-0.24-1.07,0.04-2.09,0.49-3.44c0.22-0.64,0.88-1.08,1.63-1.08c7.51,0,46.45,0,54.61,0c0.86,0,1.58-0.58,1.68-1.33    c1.02-7.41,2.14-13.95,2.67-20.53c0.97-12.1,2.95-24.09,4.66-36.11c0.77-5.4,3.47-11.15,7-14.9c1.1-1.16,3.21-0.36,3.02,1.15    c-2.88,22.93-2.32,45.48-3.36,68.4c-0.04,0.86,0.73,1.58,1.7,1.58h53.49c0.66,0,1.27-0.35,1.56-0.88c1.19-2.21,0.7-4.14,0.68-5.98    c-0.16-18.93,0.19-37.84,2.53-56.67c0.46-3.72,1.31-7.41,2.06-11.1c0.11-0.56,0.26-1.11,0.51-1.61c0.74-1.48,3.26-1,3.28,0.62    c0.29,24.55-0.91,49.01,2.06,73.65c0.09,0.77,0.84,1.36,1.71,1.36h45.19c0.66,0,1.26-0.33,1.54-0.86    c8.68-15.88,15.71-32.98,33.37-43.71c0.61-0.37,1.45-0.35,2.04,0.05c17.7,12.04,29.2,28.18,38.81,45.35    c0.25,0.45,0.74,0.76,1.3,0.83c10.74,1.34,21.17,1.7,31.67,0.46c4.1-0.48,7.46,0.31,8.02,4.26c0.11,0.75-0.45,1.48-1.28,1.67    c-10.84,2.46-21.8,0.15-33.34,0.13c-1.17,0-1.96,1.04-1.58,2.01c20.81,52.94,27.43,107.48,28.9,163.69    c0.03,1.11,1.35,1.83,2.47,1.34c12.32-5.47,22.53-12.41,32.62-19.73c0.4-0.29,0.63-0.73,0.62-1.18    c-0.23-42.74,25.62-74.76,55.28-105.99c0.41-0.43,0.51-1.01,0.28-1.53c-1.97-4.48-3.59-9.48-6.51-13.79    c-6.71-9.91-13.52-19.78-24.96-26.35c-7.36-4.23-15.28-6.92-23.43-9.42c-10.18-3.13-20.64-5.55-29.53-11.54    c-13.56-9.12-12.18-22.37-0.25-30c16.01-10.24,37.9-11.24,56.03-2.26c8.96,4.43,13.13,13.78,12.11,24.86    c-0.04,0.38-0.24,0.75-0.54,1.03c-3.72,3.3-4.11,3.46-8.87,2.93c-0.6-0.07-1.13-0.41-1.38-0.9c-0.77-1.53-0.41-3.13,0.23-4.75    c2.74-6.89,0.38-13.21-6.6-17.37c-4.57-2.72-9.43-4.81-14.81-6.09c-10.61-2.53-21.2,1.96-26.5,5.48    C572.96,253.37,572.13,254.11,571.42,254.94z M588.18,470.14c-9.96,4.16-19.92,8.31-30.08,12.55c-0.66,0.27-1.08,0.88-1.02,1.52    c0.28,3.01-0.53,6.01,0.33,9.01c0.22,0.77,1.09,1.23,1.97,1.12c0.36-0.05,0.67-0.12,0.89-0.28c6.71-4.83,13.83-9.31,19.84-14.75    c2.94-2.66,7.68-4.32,9.05-8.73c0.16-0.5,0.64-0.83,1.19-1.01c0.31-0.1,0.56-0.33,0.62-0.93    C590.19,469.15,589.58,469.56,588.18,470.14z M424.5,347.32c-6.44,3.06-12.23,6.92-17.67,10.94c-0.42,0.31-0.65,0.78-0.62,1.27    c2.84,42.79,9.42,84.91,10.91,127.02c0.02,0.52,0.32,0.99,0.82,1.25c8.92,4.65,52.97,6.04,66.11,2.25    c0.45-0.13,0.8-0.43,0.99-0.81c5.08-10.18,9.34-20.65,13.33-31.26c5.84-15.51,10.84-31.19,13.85-47.3    c4.3-22.99,7.45-46.13,6.51-69.49c-0.27-6.67,0.02-13.57-2.37-20.01c-2.31-6.21-3.02-9.33-5.97-15.98    c-0.22-0.49-0.43-2.2-1.01-2.2c-15.34,0-39.92-0.74-50.72-0.74c-0.76,0-1.45,0.39-1.71,1.03c-0.44,1.1-0.83,1.94-0.92,2.79    c-2.83,26.3-1.77,52.53,3.74,78.45c2.17,10.23,3.62,21.17,12.83,29.23c2.05,1.79,1.01,3.96-0.57,5.82    c-2.5,2.93-3.83,6.21-4.45,9.87c-1.6,9.52-2.45,19.17-5.68,28.61c-0.19,0.54-0.71,0.96-1.34,1.06c-5.06,0.8-9.53,0.28-11.69-4.34    c-0.04-0.09-0.08-0.19-0.11-0.29c-13.06-49.81-15.46-99.73-3.13-150.25c0.23-0.94-0.57-1.84-1.66-1.84h-39.74    c-0.93,0-1.7,0.67-1.72,1.5c-0.33,16.21,1.15,31.95,3.15,48.39c0.14,1.18,1.69,1.77,2.76,1.05c7.81-5.28,15.29-9.7,24.39-12.96    c-0.8,4.39-5.36,4.1-7.87,6.62C424.81,347.13,424.67,347.24,424.5,347.32z M392.21,332.28c-0.46-9.49-0.92-18.98-1.43-29.36    c-0.04-0.88-0.9-1.55-1.88-1.48c-17.89,1.28-35.47,0.6-53.52,0.92c-0.93,0.02-1.68,0.69-1.69,1.52c-0.02,2.15-0.06,4,0.02,5.85    c0.68,16.28,1.4,32.56,1.16,48.85c-0.02,1.47,0.31,2.94,0.43,4.41c1.32,15.56,3,31.11,3.79,46.69c0.49,9.7,1.85,19.28,2.93,28.91    c1.4,12.53,3.58,24.92,4.99,37.5c1.61,14.35,7.56,26.12,18.78,36.36c11.48,10.47,25.64,16.25,41.18,19.35    c16.83,3.36,33.95,2.96,51.5,0.88c0.5-0.06,0.95-0.31,1.22-0.69c6.87-9.61,13.82-19.47,19.05-31.13c0.45-1-0.41-2.09-1.63-2.08    c-19.89,0.16-38.83-1.15-57.19-6.67c-1.01-0.3-2.07,0.27-2.25,1.2c-1.76,9.45,1.24,18.66-3.07,27.12    c-0.18,0.34-0.49,0.63-0.88,0.78c-4.38,1.74-8.7,1.51-13.32,0.77c-0.81-0.13-1.39-0.77-1.39-1.51c0.07-11.4-0.98-22.33-1.92-33.39    c-0.04-0.52-0.39-0.99-0.91-1.24c-6.34-2.98-12.83-5.24-18.67-8.7c-9.33-5.54-17.25-12.32-22.47-20.97    c-7.4-12.26-7.56-25.64-3.31-38.66c4.7-14.41,13.49-27,25.44-37.76c5.37-4.83,10.55-9.83,15.79-14.74    c0.32-0.3,0.49-0.71,0.47-1.13C392.76,353.54,392,343.39,392.21,332.28z M362.72,461.39c8.77,8.76,18.78,15.9,31.93,20.18    c1.13,0.37,2.32-0.42,2.29-1.49c-1.04-35.87-2.07-71.1-3.1-106.3c-0.09-4.39,1.18-7.6-5.13-1.54h0c-1.02,1.11-2.23,2.08-3.36,3.1    c-15.19,13.77-27.8,28.85-32.18,48.37c-3.05,13.59,0.08,25.75,9.4,37.51C362.61,461.28,362.66,461.33,362.72,461.39z     M536.79,414.17c-1.87-17.11-3.61-34.23-6.71-51.23c-0.33-1.82-3.36-1.64-3.4,0.2c-1.08,42.33-10.66,83.42-28.1,124.43    c-0.49,1.14,0.66,2.31,1.99,2.02c12.04-2.62,22.42-5.84,32.62-9.27c0.58-0.2,1-0.66,1.09-1.21    C537.83,457.48,538.83,436.32,536.79,414.17z M632.2,472.42c-4.59-5.76-8.61-11.83-12.17-18.62c-0.54-1.02-2.09-1.21-2.89-0.33    c-3.99,4.38-7.88,8.18-11.03,12.61c-0.34,0.47-0.34,1.08-0.03,1.56c2.85,4.49,5.01,9.19,8.76,13.12    c12.9,13.51,30.34,18.04,49.21,19.7c11.23,0.99,22.11-1.43,32.85-3.63c5.68-1.16,11.91-1.99,17.51-5.48    c-1.04-0.29-1.23-0.4-1.38-0.37c-1.78,0.42-3.55,0.84-5.32,1.29c-18.09,4.58-35.65,3.65-52.79-3.53    c-8.81-3.69-15.6-9.48-22.57-16.13C632.31,472.55,632.25,472.49,632.2,472.42z M504.56,284.91c-2.06-5.67-5.65-14.5-12.14-22.71    c-4.04-5.11-11.3-5.47-15.85-0.7c-7.7,8.06-15.24,23-16.65,31.79c-0.15,0.9,0.67,1.69,1.7,1.66c14.88-0.33,29.5,0.42,44.71,0.47    c1.18,0,2.02-1.04,1.65-2.03c-1.15-3.08-1.99-5.17-3.33-8.32C504.61,285.01,504.58,284.96,504.56,284.91z M487.35,527.06    c14.21-3.7,27.89-8.51,40.56-15.01c0.45-0.23,0.74-0.63,0.83-1.08c1.18-6.43,3.68-12.44,4.06-19.14c0.05-0.97-0.9-1.77-1.99-1.61    c-12.46,1.77-23.86,4.98-35.62,7.01c-0.53,0.09-0.98,0.4-1.22,0.83c-5.27,9.6-10.41,18.95-15.62,28.44    c-0.5,0.91,0.11,2.03,1.23,2.17C482.49,529.04,484.58,527.8,487.35,527.06z M643.47,369.68c-8.15,11.61-14.71,27.78-15.76,37.87    c-0.17,1.62,2.3,2.3,3.2,0.88c7.9-12.38,13.14-25.54,16.91-39.51c0.47-1.74-2.25-2.66-3.18-1.07    C644.29,368.45,643.93,369.06,643.47,369.68z M602.6,428.25c-1.04,3.32-1.32,6.66-1.08,10.4c0.08,1.27,1.82,1.87,2.87,1    c2.88-2.38,5.6-4.29,7.09-6.54c0.16-0.23,0.23-0.5,0.23-0.78l0-20.18c0-1.61-2.49-2.12-3.26-0.66    C605.59,416.93,604.62,422.51,602.6,428.25z"/>
		<path class="st4" d="M302.14,537.64c-7.83-13.21-14.13-26.86-20.42-40.5c-7.23-15.68-13.14-31.92-18.67-48.26    c-3.61-10.67-6.92-21.53-9.24-32.54c-3.68-17.47-6.81-35.04-9.28-52.79c-3.57-25.66-2.75-51.31-3.08-77.01    c-0.14-10.73,1.91-21.21,2.95-31.81c1.11-11.33,3.05-22.5,5.29-33.64c0.13-0.65-0.24-1.32-0.88-1.49    c-1.29-0.35-2.58-0.25-4.04-0.08c-0.49,0.06-0.91,0.38-1.09,0.83c-2.5,6.58-3.23,13.7-4.27,20.68c-0.52,3.45-1.23,6.85-1.76,10.28    c-1.97,12.85-3.64,25.76-5.44,38.62c-2.75,19.64-2.62,39.29-2.09,58.92c0.66,24.24,1.91,48.47,5.42,72.57    c2.28,15.65,5.29,31.05,9.26,46.35c3.36,12.96,6.98,25.78,11.47,38.41c5.41,15.23,11.8,30.04,19.2,44.35    c7.85,15.18,15.26,30.62,24.41,45.09c6.69,10.57,14.23,20.56,21.89,30.44c1.77,2.28,2.1,5.01,3.2,7.32    c0.15,0.31,0.19,0.66,0.08,0.98c-1.91,5.63-7.33,7.52-11.2,10.9c-1.09,0.96-2.43,1.8-3.67,2.68c-2.59,1.84-5.87,1.16-7.25-1.37    c-9.36-17.18-19.26-34.07-27.64-51.76c-5.71-12.06-10.89-24.36-15.88-36.76c-4.06-10.09-7.87-20.29-11.16-30.61    c-3.45-10.85-7.31-21.62-9.5-32.87c-0.9-4.64-2.33-9.22-3.66-13.74c-3.65-12.37-6.2-25.03-8.23-37.63    c-2.69-16.67-4.86-33.47-6.7-50.31c-3.05-27.95-2.38-55.87-2.16-83.82c0.14-17.52,2.46-34.89,5.23-52.22    c1.95-12.18,4.56-24.11,7.14-36.63c0.12-0.59-0.22-1.2-0.8-1.38c-4.05-1.23-8.15-1.61-12.25-2c-2.76-0.26-3.93-1.24-3.71-3.14    c0.09-0.77,0.85-1.26,1.61-1.08c5.15,1.22,10.42,0.48,16.05,0.74c0.58,0.03,1.11-0.33,1.3-0.88    c13.88-41.05,36.81-76.06,68.61-105.36c0.93-0.86,0.22-2.42-1.04-2.25c-28.77,3.86-56.14,11.57-81.74,25.64    c-0.58,0.32-0.85,1.04-0.58,1.65c0.65,1.5,1.58,2.69,1.7,4.14c0.03,0.31-0.09,0.61-0.29,0.85c-2.97,3.65-7.14,4.9-15.16,4.44    c-0.32-0.02-0.63-0.16-0.85-0.39l-2.94-3.1c-0.25-0.26-0.39-0.62-0.36-0.98c0.47-7.04,6.17-9.89,11.23-13.13    c9.9-6.33,20.78-10.74,31.75-14.66c12.03-4.3,24.35-7.7,36.94-10.28c10-2.05,20.05-3.89,30.13-5.05    c8.88-1.02,15.11-5.92,21.55-10.97c1.79-1.4,3.77-2.43,5.78-3.19c3.26-1.24,4.16,1.28,5.31,3.42c0.23,0.43,0.19,0.95-0.08,1.36    c-1.64,2.47-4.38,3.6-6.51,5.4c-0.95,0.8-0.38,2.35,0.86,2.35l0,0c17.24,0.13,34.36,0.56,51.44,4.03    c13.5,2.74,26.56,6.41,38.66,12.74c11.17,5.84,22.64,11.63,29.84,22.9c6.09,9.52,8.54,19.65,5.68,30.71    c-3.31,12.78-11.73,21.88-21.94,29.62c-11.46,8.69-24.89,12.73-38.38,16.72c-11.42,3.38-23.1,5.42-34.88,6.74    c-17.96,2.01-35.94,4.07-54.04,4.13c-16.57,0.05-33.14-0.35-49.71-0.54c-1.63-0.02-3.25-0.01-4.82,0c-0.56,0-1.05,0.37-1.21,0.91    c-3.22,10.73-4.38,21.56-5.54,32.32c-2.64,24.47-4.1,49.06-2.41,73.64c0.96,13.97,1.56,27.97,3.69,41.9    c1.95,12.7,4.23,25.28,6.77,37.87c2.21,10.96,5.18,21.67,8.22,32.39c3.57,12.58,7.9,24.86,12.65,37.06    c6.21,15.94,13.22,31.45,20.87,46.74c7.22,14.44,15.35,28.27,24.51,41.52c1.74,2.51,4.07,4.61,6.21,6.84    c1.97,2.06,2.53,4.4,2.18,6.96c-0.06,0.41-0.32,0.78-0.7,0.97c-2.4,1.18-4.71,1.29-7.76-0.27c-0.22-0.11-0.4-0.29-0.52-0.49    C318.17,565.01,310.2,551.47,302.14,537.64z M306.85,112.81c-3.74,3.28-7.82,6.25-11.16,9.9c-9.86,10.75-15.04,24.28-20.85,37.31    c-4.18,9.38-7.06,19.31-10.1,29.15c-2.24,7.26-3.85,14.63-5.47,22.41c-0.17,0.81,0.45,1.58,1.28,1.58    c14.43,0.07,28.58,0.49,42.72-1.11c13.48-1.53,27-2.6,40.46-4.46c16.21-2.25,32.12-5.6,47.75-10.18    c9.16-2.69,18.06-6.28,26.61-10.81c10.8-5.72,20.58-12.44,27.06-23c3.88-6.32,5.97-12.97,2.99-20.67    c-3.82-9.89-10.67-16.98-19.39-22.2c-13.46-8.06-28.13-12.83-43.66-15.51c-17.76-3.07-35.56-4.24-53.52-3.9    c-3.21,0.06-6.53,0.02-9.46,1.49C316.83,105.44,311.78,108.49,306.85,112.81z M259.34,185.87c0.46-1.77,0.98-3.52,1.53-5.26    c0.47-1.49-1.64-2.37-2.38-1c-5.47,10.07-10.13,20.48-12.06,32.09c-0.12,0.73,0.41,1.41,1.14,1.51c0.94,0.13,1.92,0.05,2.98-0.18    c0.48-0.1,0.88-0.45,1.01-0.93c2.41-8.48,4.35-17.2,7.74-26.13C259.32,185.94,259.33,185.9,259.34,185.87z"/>
	</g>
</g>
</svg>